#!OML:ASF X:\für Bonn\!DataBase\2005_08_11_Bastian_Final\c3d\Bastian.ASF
:FULLY-SPECIFIED
:DEGREES
191
root -0.232791 16.6703 -4.53877 533.75 41.043 -175.656
lowerback 20.8965 -5.98978 -0.542876
upperback 18.2933 -4.69045 1.77912
thorax 8.92873 -1.23521 3.04512
lowerneck -18.9408 -13.3645 -21.8048
upperneck -1.97657 -15.3943 36.2543
head 8.26455 -5.51704 14.4278
rclavicle -6.94768e-014 2.76435e-016
rhumerus -28.3238 12.1307 -84.9831
rradius 30.4906
rwrist 0.110989
rhand -10.1422 3.85782
rfingers 7.12502
rthumb 15.8467 -25.5137
lclavicle -6.94768e-014 2.76435e-016
lhumerus 7.45958 -23.6541 -271.954
lradius 37.0954
lwrist -351.942
lhand -14.7149 -9.56172
lfingers 7.12502
lthumb 11.4397 20.1062
rfemur -33.7509 0.698044 17.5997
rtibia 40.8826
rfoot 11.8451 -2.17854
rtoes -23.694
lfemur 19.3198 2.0981 -13.3827
ltibia 29.7333
lfoot -21.1941 -18.252
ltoes -4.22385
192
root -0.132776 16.6599 -4.60675 533.915 40.8408 -175.637
lowerback 20.9469 -6.10614 -0.249069
upperback 18.2476 -4.79998 1.89104
thorax 8.83385 -1.26446 3.02274
lowerneck -18.9785 -13.3543 -21.8379
upperneck -2.04046 -15.3365 36.1826
head 8.22347 -5.49263 14.4108
rclavicle -5.31749e-015 1.08338e-014
rhumerus -28.2379 11.9296 -84.7779
rradius 30.4922
rwrist 0.279296
rhand -10.1912 3.9812
rfingers 7.12502
rthumb 15.7995 -25.394
lclavicle -5.31749e-015 1.08338e-014
lhumerus 7.1543 -23.7447 -271.754
lradius 37.2352
lwrist -351.714
lhand -14.6885 -9.50713
lfingers 7.12502
lthumb 11.4652 20.1594
rfemur -33.956 0.253234 17.7557
rtibia 41.5628
rfoot 11.3406 -1.85723
rtoes -22.8301
lfemur 19.7682 1.81631 -13.2846
ltibia 29.2568
lfoot -20.9644 -18.2402
ltoes -4.78401
193
root -0.0309204 16.6704 -4.67609 534.092 40.647 -175.595
lowerback 21.0189 -6.22254 0.0578795
upperback 18.204 -4.90373 2.00799
thorax 8.72958 -1.28899 2.99961
lowerneck -19.0205 -13.3499 -21.8708
upperneck -2.13147 -15.2796 36.1245
head 8.17776 -5.46811 14.3984
rclavicle 8.74653e-015 -1.38155e-014
rhumerus -28.151 11.7851 -84.586
rradius 30.4932
rwrist 0.42349
rhand -10.2097 4.15145
rfingers 7.12502
rthumb 15.7817 -25.2252
lclavicle 8.74653e-015 -1.38155e-014
lhumerus 6.87421 -23.7805 -271.532
lradius 37.3345
lwrist -351.528
lhand -14.6756 -9.51437
lfingers 7.12502
lthumb 11.4776 20.1514
rfemur -34.1044 -0.44022 18.0461
rtibia 42.2919
rfoot 10.767 -1.28732
rtoes -22.5537
lfemur 20.2289 1.50026 -13.1877
ltibia 28.7344
lfoot -20.6359 -18.2247
ltoes -5.25098
194
root 0.0728841 16.6606 -4.74487 534.265 40.4348 -175.581
lowerback 21.0885 -6.3381 0.348138
upperback 18.1613 -5.00663 2.11941
thorax 8.62908 -1.31445 2.9798
lowerneck -19.1185 -13.3525 -21.8739
upperneck -2.19792 -15.2331 36.048
head 8.14666 -5.44205 14.369
rclavicle 9.17391e-014 -7.42461e-014
rhumerus -28.0507 11.6079 -84.391
rradius 30.484
rwrist 0.689953
rhand -10.2506 4.27446
rfingers 7.12502
rthumb 15.7423 -25.1053
lclavicle 9.17391e-014 -7.42461e-014
lhumerus 6.61972 -23.8236 -271.331
lradius 37.4002
lwrist -351.351
lhand -14.661 -9.56415
lfingers 7.12502
lthumb 11.4917 20.1009
rfemur -34.3672 -1.15316 18.3265
rtibia 43.1491
rfoot 10.1904 -0.738528
rtoes -22.3059
lfemur 20.677 1.19148 -13.0908
ltibia 28.2345
lfoot -20.3232 -18.1935
ltoes -5.82019
195
root 0.1781 16.6498 -4.81344 534.442 40.2395 -175.539
lowerback 21.2008 -6.44402 0.64265
upperback 18.1151 -5.09146 2.23743
thorax 8.50236 -1.33021 2.96555
lowerneck -19.1992 -13.3631 -21.8585
upperneck -2.28621 -15.2002 35.9702
head 8.10813 -5.42461 14.3305
rclavicle -1.07344e-014 -2.93207e-014
rhumerus -27.9606 11.3715 -84.1894
rradius 30.4864
rwrist 1.00213
rhand -10.2472 4.39991
rfingers 7.12502
rthumb 15.7456 -24.9796
lclavicle -1.07344e-014 -2.93207e-014
lhumerus 6.3618 -23.898 -271.137
lradius 37.449
lwrist -351.166
lhand -14.6888 -9.63714
lfingers 7.12502
lthumb 11.4648 20.0294
rfemur -34.6217 -1.77543 18.6221
rtibia 44.0456
rfoot 9.57984 -0.295039
rtoes -22.0842
lfemur 21.1493 0.915377 -12.946
ltibia 27.7305
lfoot -19.9719 -18.2178
ltoes -6.49762
196
root 0.285524 16.639 -4.88255 534.588 40.0296 -175.526
lowerback 21.357 -6.55161 0.890127
upperback 18.0543 -5.1825 2.36873
thorax 8.34362 -1.35574 2.99551
lowerneck -19.2993 -13.3692 -21.8937
upperneck -2.34663 -15.1544 35.8977
head 8.08305 -5.39894 14.3103
rclavicle -6.34123e-014 -7.35503e-015
rhumerus -27.8964 11.2963 -84.0028
rradius 30.509
rwrist 1.19411
rhand -10.3033 4.49525
rfingers 7.12502
rthumb 15.6915 -24.8885
lclavicle -6.34123e-014 -7.35503e-015
lhumerus 6.08005 -23.8643 -270.88
lradius 37.4625
lwrist -351.075
lhand -14.7358 -9.7156
lfingers 7.12502
lthumb 11.4196 19.9534
rfemur -34.8908 -2.33858 18.8662
rtibia 45.0181
rfoot 8.91316 0.0203959
rtoes -21.5632
lfemur 21.5831 0.640688 -12.8072
ltibia 27.323
lfoot -19.6493 -18.2538
ltoes -7.41557
197
root 0.394248 16.6292 -4.9519 534.799 39.8356 -175.473
lowerback 21.4659 -6.66019 1.16863
upperback 18.0055 -5.27071 2.49323
thorax 8.21906 -1.37629 2.99828
lowerneck -19.4482 -13.3748 -21.8497
upperneck -2.40213 -15.1126 35.7938
head 8.05661 -5.36987 14.2574
rclavicle -7.55382e-014 3.85642e-014
rhumerus -27.7816 11.1629 -83.8178
rradius 30.5233
rwrist 1.45843
rhand -10.3002 4.58091
rfingers 7.12502
rthumb 15.6946 -24.8026
lclavicle -7.55382e-014 3.85642e-014
lhumerus 5.85999 -23.7886 -270.67
lradius 37.3943
lwrist -351.069
lhand -14.7348 -9.87602
lfingers 7.12502
lthumb 11.4205 19.793
rfemur -35.1977 -2.82641 19.1235
rtibia 45.9792
rfoot 8.29865 0.212876
rtoes -20.5384
lfemur 21.995 0.355575 -12.6432
ltibia 26.8869
lfoot -19.2864 -18.2656
ltoes -8.28126
198
root 0.5073 16.6197 -5.02189 534.946 39.649 -175.493
lowerback 21.5938 -6.73551 1.36157
upperback 17.9507 -5.32643 2.62201
thorax 8.0866 -1.39038 3.04973
lowerneck -19.5782 -13.3845 -21.8329
upperneck -2.45461 -15.0774 35.7046
head 8.03489 -5.34558 14.216
rclavicle -8.54774e-015 8.34896e-015
rhumerus -27.7374 11.1362 -83.6615
rradius 30.6119
rwrist 1.53274
rhand -10.3223 4.60132
rfingers 7.12502
rthumb 15.6733 -24.7839
lclavicle -8.54774e-015 8.34896e-015
lhumerus 5.60442 -23.7184 -270.42
lradius 37.3109
lwrist -351.139
lhand -14.7337 -10.0109
lfingers 7.12502
lthumb 11.4216 19.658
rfemur -35.4972 -3.28744 19.3254
rtibia 47.0088
rfoot 7.60042 0.416135
rtoes -19.639
lfemur 22.396 0.0645092 -12.5363
ltibia 26.5395
lfoot -19.0336 -18.2782
ltoes -9.52707
199
root 0.625616 16.6118 -5.09259 535.108 39.4592 -175.476
lowerback 21.7143 -6.81613 1.52133
upperback 17.8996 -5.39283 2.7763
thorax 7.97062 -1.41511 3.14876
lowerneck -19.7201 -13.3859 -21.8294
upperneck -2.47696 -15.0321 35.5935
head 8.01853 -5.3162 14.1715
rclavicle 3.29983e-014 -9.93923e-016
rhumerus -27.6458 11.1638 -83.4846
rradius 30.645
rwrist 1.60867
rhand -10.3702 4.64324
rfingers 7.12502
rthumb 15.6271 -24.7456
lclavicle 3.29983e-014 -9.93923e-016
lhumerus 5.36988 -23.5656 -270.137
lradius 37.1053
lwrist -351.311
lhand -14.7591 -10.2188
lfingers 7.12502
lthumb 11.397 19.4514
rfemur -35.7567 -3.71234 19.562
rtibia 48.0292
rfoot 6.89494 0.595486
rtoes -18.7258
lfemur 22.83 -0.242657 -12.3833
ltibia 26.1583
lfoot -18.8158 -18.2894
ltoes -11.0008
200
root 0.74692 16.5791 -5.16212 535.292 39.3001 -175.436
lowerback 21.7919 -6.87904 1.69125
upperback 17.863 -5.43578 2.91878
thorax 7.88982 -1.42587 3.22355
lowerneck -19.8237 -13.373 -21.7832
upperneck -2.56071 -14.9639 35.4954
head 7.96876 -5.27962 14.1275
rclavicle 4.39314e-014 -4.6118e-014
rhumerus -27.5544 11.1482 -83.3566
rradius 30.688
rwrist 1.66873
rhand -10.4458 4.67274
rfingers 7.12502
rthumb 15.5543 -24.7217
lclavicle 4.39314e-014 -4.6118e-014
lhumerus 5.11247 -23.4648 -269.911
lradius 36.9396
lwrist -351.495
lhand -14.7852 -10.3752
lfingers 7.12502
lthumb 11.3719 19.2964
rfemur -36.1154 -4.0375 19.8138
rtibia 49.1229
rfoot 6.18454 0.697055
rtoes -17.8238
lfemur 23.2861 -0.562902 -12.2098
ltibia 25.7856
lfoot -18.6453 -18.2773
ltoes -12.4361
201
root 0.870381 16.5696 -5.23316 535.452 39.1414 -175.447
lowerback 21.8494 -6.92255 1.80674
upperback 17.8289 -5.46303 3.06404
thorax 7.82796 -1.43497 3.32784
lowerneck -19.9096 -13.3508 -21.701
upperneck -2.62457 -14.8977 35.3741
head 7.91554 -5.24618 14.0661
rclavicle 1.55052e-014 1.98785e-015
rhumerus -27.4753 11.032 -83.2224
rradius 30.765
rwrist 1.75543
rhand -10.5163 4.6876
rfingers 7.12502
rthumb 15.4864 -24.7121
lclavicle 1.55052e-014 1.98785e-015
lhumerus 4.91152 -23.4343 -269.706
lradius 36.676
lwrist -351.691
lhand -14.8338 -10.5503
lfingers 7.12502
lthumb 11.325 19.1239
rfemur -36.3551 -4.31205 20.0237
rtibia 50.1427
rfoot 5.45601 0.802623
rtoes -17.1923
lfemur 23.7199 -0.911475 -12.1179
ltibia 25.39
lfoot -18.3848 -18.2041
ltoes -13.7235
